FacadeStencil-Bold.ufo
<glyph name="parenleft" format="2">
  <advance width="480"/>
  <unicode hex="0028"/>
  <outline>
    <contour>
      <point x="245" y="-180" type="curve"/>
      <point x="420" y="-180" type="line"/>
      <point x="309" y="-19"/>
      <point x="246" y="176"/>
      <point x="246" y="390" type="curve" smooth="yes"/>
      <point x="246" y="604"/>
      <point x="309" y="799"/>
      <point x="420" y="960" type="curve"/>
      <point x="245" y="960" type="line"/>
      <point x="143" y="793"/>
      <point x="84" y="598"/>
      <point x="84" y="390" type="curve" smooth="yes"/>
      <point x="84" y="182"/>
      <point x="143" y="-13"/>
    </contour>
  </outline>
</glyph>
<glyph name="two" format="2">
  <advance width="750"/>
  <unicode hex="0032"/>
  <outline>
    <contour>
      <point x="86" y="0" type="line"/>
      <point x="275" y="0" type="line"/>
      <point x="592" y="448" type="line"/>
      <point x="642" y="519"/>
      <point x="665" y="572"/>
      <point x="665" y="636" type="curve" smooth="yes"/>
      <point x="665" y="783"/>
      <point x="546" y="904"/>
      <point x="399" y="919" type="curve"/>
      <point x="399" y="754" type="line"/>
      <point x="453" y="741"/>
      <point x="491" y="694"/>
      <point x="491" y="636" type="curve" smooth="yes"/>
      <point x="491" y="610"/>
      <point x="483" y="583"/>
      <point x="452" y="537" type="curve" smooth="yes"/>
    </contour>
    <contour>
      <point x="341" y="0" type="line"/>
      <point x="676" y="0" type="line"/>
      <point x="676" y="162" type="line"/>
      <point x="455" y="162" type="line"/>
    </contour>
    <contour>
      <point x="105" y="518" type="curve"/>
      <point x="301" y="518" type="line"/>
      <point x="262" y="551"/>
      <point x="242" y="592"/>
      <point x="242" y="636" type="curve" smooth="yes"/>
      <point x="242" y="694"/>
      <point x="280" y="742"/>
      <point x="335" y="755" type="curve"/>
      <point x="335" y="919" type="line"/>
      <point x="185" y="904"/>
      <point x="74" y="779"/>
      <point x="74" y="637" type="curve" smooth="yes"/>
      <point x="74" y="595"/>
      <point x="84" y="556"/>
    </contour>
  </outline>
</glyph>
<glyph name="question" format="2">
  <advance width="480"/>
  <unicode hex="003F"/>
  <outline>
    <contour>
      <point x="174" y="330" type="curve"/>
      <point x="306" y="330" type="line"/>
      <point x="325" y="470"/>
      <point x="462" y="540"/>
      <point x="462" y="699" type="curve" smooth="yes"/>
      <point x="462" y="805"/>
      <point x="401" y="885"/>
      <point x="300" y="910" type="curve"/>
      <point x="300" y="681" type="line" smooth="yes"/>
      <point x="300" y="581"/>
      <point x="174" y="524"/>
    </contour>
    <contour>
      <point x="240" y="-20" type="curve" smooth="yes"/>
      <point x="299" y="-20"/>
      <point x="345" y="26"/>
      <point x="345" y="85" type="curve" smooth="yes"/>
      <point x="345" y="144"/>
      <point x="299" y="190"/>
      <point x="240" y="190" type="curve" smooth="yes"/>
      <point x="181" y="190"/>
      <point x="135" y="144"/>
      <point x="135" y="85" type="curve" smooth="yes"/>
      <point x="135" y="26"/>
      <point x="181" y="-20"/>
    </contour>
    <contour>
      <point x="66" y="690" type="line"/>
      <point x="95" y="724"/>
      <point x="141" y="762"/>
      <point x="204" y="762" type="curve" smooth="yes"/>
      <point x="220" y="762"/>
      <point x="234" y="760"/>
      <point x="246" y="756" type="curve"/>
      <point x="246" y="916" type="line"/>
      <point x="235" y="918"/>
      <point x="229" y="918"/>
      <point x="220" y="918" type="curve" smooth="yes"/>
      <point x="165" y="918"/>
      <point x="112" y="898"/>
      <point x="66" y="864" type="curve"/>
    </contour>
  </outline>
</glyph>
<glyph name="I" format="2">
  <advance width="390"/>
  <unicode hex="0049"/>
  <anchor x="195" y="0" name="bottom"/>
  <anchor x="195" y="0" name="ogonek"/>
  <anchor x="195" y="900" name="top"/>
  <anchor x="0" y="900" name="topleft"/>
  <outline>
    <contour>
      <point x="102" y="0" type="line"/>
      <point x="288" y="0" type="line"/>
      <point x="288" y="900" type="line"/>
      <point x="102" y="900" type="line"/>
    </contour>
  </outline>
</glyph>
<glyph name="N" format="2">
  <advance width="900"/>
  <unicode hex="004E"/>
  <anchor x="465" y="0" name="bottom"/>
  <anchor x="465" y="900" name="top"/>
  <outline>
    <contour>
      <point x="804" y="-30" type="line"/>
      <point x="804" y="225" type="line"/>
      <point x="96" y="930" type="line"/>
      <point x="96" y="677" type="line"/>
    </contour>
    <contour>
      <point x="96" y="0" type="line"/>
      <point x="264" y="0" type="line"/>
      <point x="264" y="410" type="line"/>
      <point x="96" y="577" type="line"/>
    </contour>
    <contour>
      <point x="804" y="325" type="line"/>
      <point x="804" y="900" type="line"/>
      <point x="636" y="900" type="line"/>
      <point x="636" y="492" type="line"/>
    </contour>
  </outline>
</glyph>
<glyph name="O" format="2">
  <advance width="1060"/>
  <unicode hex="004F"/>
  <anchor x="530" y="0" name="bottom"/>
  <anchor x="530" y="450" name="center"/>
  <anchor x="530" y="0" name="ogonek"/>
  <anchor x="530" y="900" name="top"/>
  <anchor x="530" y="480" name="top-vertical"/>
  <anchor x="60" y="900" name="topleft"/>
  <anchor x="1000" y="900" name="topright"/>
  <outline>
    <contour>
      <point x="564" y="-17" type="line"/>
      <point x="811" y="0"/>
      <point x="1006" y="202"/>
      <point x="1006" y="450" type="curve" smooth="yes"/>
      <point x="1006" y="698"/>
      <point x="811" y="900"/>
      <point x="564" y="917" type="curve"/>
      <point x="564" y="742" type="line"/>
      <point x="709" y="725"/>
      <point x="818" y="602"/>
      <point x="818" y="450" type="curve" smooth="yes"/>
      <point x="818" y="298"/>
      <point x="709" y="175"/>
      <point x="564" y="158" type="curve"/>
    </contour>
    <contour>
      <point x="496" y="-17" type="curve"/>
      <point x="496" y="158" type="line"/>
      <point x="351" y="175"/>
      <point x="242" y="299"/>
      <point x="242" y="450" type="curve" smooth="yes"/>
      <point x="242" y="601"/>
      <point x="351" y="725"/>
      <point x="496" y="742" type="curve"/>
      <point x="496" y="917" type="line"/>
      <point x="249" y="900"/>
      <point x="54" y="698"/>
      <point x="54" y="450" type="curve" smooth="yes"/>
      <point x="54" y="202"/>
      <point x="249" y="0"/>
    </contour>
  </outline>
</glyph>
<glyph name="S" format="2">
  <advance width="660"/>
  <unicode hex="0053"/>
  <anchor x="317" y="0" name="bottom"/>
  <anchor x="338" y="900" name="top"/>
  <outline>
    <contour>
      <point x="357" y="-19" type="line"/>
      <point x="521" y="-6"/>
      <point x="621" y="109"/>
      <point x="621" y="256" type="curve" smooth="yes"/>
      <point x="621" y="415"/>
      <point x="503" y="484"/>
      <point x="432" y="519" type="curve" smooth="yes"/>
      <point x="325" y="572" type="line" smooth="yes"/>
      <point x="270" y="599"/>
      <point x="237" y="626"/>
      <point x="237" y="673" type="curve" smooth="yes"/>
      <point x="237" y="714"/>
      <point x="262" y="747"/>
      <point x="309" y="757" type="curve"/>
      <point x="309" y="918" type="line"/>
      <point x="160" y="904"/>
      <point x="67" y="806"/>
      <point x="67" y="666" type="curve" smooth="yes"/>
      <point x="67" y="527"/>
      <point x="157" y="463"/>
      <point x="250" y="417" type="curve" smooth="yes"/>
      <point x="356" y="364" type="line" smooth="yes"/>
      <point x="390" y="347"/>
      <point x="451" y="314"/>
      <point x="451" y="245" type="curve" smooth="yes"/>
      <point x="451" y="194"/>
      <point x="416" y="153"/>
      <point x="357" y="144" type="curve"/>
    </contour>
    <contour>
      <point x="297" y="-19" type="curve"/>
      <point x="297" y="145" type="line"/>
      <point x="220" y="158"/>
      <point x="144" y="213"/>
      <point x="103" y="284" type="curve"/>
      <point x="54" y="84" type="line"/>
      <point x="108" y="31"/>
      <point x="198" y="-12"/>
    </contour>
    <contour>
      <point x="545" y="645" type="curve"/>
      <point x="591" y="840" type="line"/>
      <point x="543" y="876"/>
      <point x="465" y="914"/>
      <point x="369" y="919" type="curve"/>
      <point x="369" y="757" type="line"/>
      <point x="433" y="747"/>
      <point x="498" y="705"/>
    </contour>
  </outline>
</glyph>
<glyph name="bracketleft" format="2">
  <advance width="480"/>
  <unicode hex="005B"/>
  <outline>
    <contour>
      <point x="90" y="-180" type="line"/>
      <point x="420" y="-180" type="line"/>
      <point x="420" y="-48" type="line"/>
      <point x="240" y="-48" type="line"/>
      <point x="240" y="828" type="line"/>
      <point x="420" y="828" type="line"/>
      <point x="420" y="960" type="line"/>
      <point x="90" y="960" type="line"/>
    </contour>
  </outline>
</glyph>
<glyph name="c" format="2">
  <advance width="600"/>
  <unicode hex="0063"/>
  <anchor x="371" y="0" name="bottom"/>
  <anchor x="371" y="600" name="top"/>
  <outline>
    <contour>
      <point x="326" y="-18" type="curve"/>
      <point x="326" y="140" type="line"/>
      <point x="253" y="159"/>
      <point x="204" y="223"/>
      <point x="204" y="300" type="curve" smooth="yes"/>
      <point x="204" y="377"/>
      <point x="254" y="441"/>
      <point x="326" y="459" type="curve"/>
      <point x="326" y="618" type="line"/>
      <point x="163" y="602"/>
      <point x="36" y="466"/>
      <point x="36" y="300" type="curve" smooth="yes"/>
      <point x="36" y="135"/>
      <point x="162" y="-1"/>
    </contour>
    <contour>
      <point x="390" y="-18" type="line"/>
      <point x="461" y="-13"/>
      <point x="525" y="14"/>
      <point x="576" y="61" type="curve"/>
      <point x="531" y="238" type="line"/>
      <point x="501" y="189"/>
      <point x="453" y="146"/>
      <point x="390" y="137" type="curve"/>
    </contour>
    <contour>
      <point x="531" y="362" type="curve"/>
      <point x="576" y="539" type="line"/>
      <point x="525" y="585"/>
      <point x="461" y="613"/>
      <point x="390" y="618" type="curve"/>
      <point x="390" y="461" type="line"/>
      <point x="453" y="454"/>
      <point x="502" y="410"/>
    </contour>
  </outline>
</glyph>
<glyph name="e" format="2">
  <advance width="690"/>
  <unicode hex="0065"/>
  <anchor x="352" y="0" name="bottom"/>
  <anchor x="492" y="0" name="ogonek"/>
  <anchor x="352" y="600" name="top"/>
  <outline>
    <contour>
      <point x="343" y="-19" type="curve"/>
      <point x="343" y="126" type="line"/>
      <point x="252" y="140"/>
      <point x="196" y="209"/>
      <point x="196" y="300" type="curve"/>
      <point x="187" y="300" type="line"/>
      <point x="187" y="398"/>
      <point x="241" y="466"/>
      <point x="320" y="480" type="curve"/>
      <point x="320" y="619" type="line"/>
      <point x="159" y="604"/>
      <point x="36" y="476"/>
      <point x="36" y="306" type="curve" smooth="yes"/>
      <point x="36" y="126"/>
      <point x="160" y="-6"/>
    </contour>
    <contour>
      <point x="294" y="249" type="curve" smooth="yes"/>
      <point x="660" y="249" type="line"/>
      <point x="660" y="310" type="line" smooth="yes"/>
      <point x="660" y="477"/>
      <point x="542" y="605"/>
      <point x="380" y="619" type="curve"/>
      <point x="380" y="480" type="line"/>
      <point x="460" y="465"/>
      <point x="509" y="397"/>
      <point x="509" y="300" type="curve"/>
      <point x="538" y="356" type="line"/>
      <point x="496" y="369"/>
      <point x="453" y="375"/>
      <point x="400" y="375" type="curve" smooth="yes"/>
      <point x="294" y="375" type="line" smooth="yes"/>
      <point x="247" y="375"/>
      <point x="205" y="367"/>
      <point x="158" y="355" type="curve"/>
      <point x="158" y="269" type="line"/>
      <point x="205" y="257"/>
      <point x="247" y="249"/>
    </contour>
    <contour>
      <point x="407" y="-19" type="line"/>
      <point x="478" y="-14"/>
      <point x="543" y="9"/>
      <point x="596" y="48" type="curve"/>
      <point x="558" y="204" type="line"/>
      <point x="524" y="164"/>
      <point x="472" y="132"/>
      <point x="407" y="125" type="curve"/>
    </contour>
  </outline>
</glyph>
<glyph name="n" format="2">
  <advance width="700"/>
  <unicode hex="006E"/>
  <anchor x="350" y="0" name="bottom"/>
  <anchor x="350" y="600" name="top"/>
  <outline>
    <contour>
      <point x="472" y="0" type="line"/>
      <point x="646" y="0" type="line"/>
      <point x="646" y="359" type="line" smooth="yes"/>
      <point x="646" y="525"/>
      <point x="529" y="620"/>
      <point x="402" y="620" type="curve" smooth="yes"/>
      <point x="365" y="620"/>
      <point x="331" y="612"/>
      <point x="300" y="597" type="curve"/>
      <point x="300" y="451" type="line"/>
      <point x="317" y="460"/>
      <point x="336" y="464"/>
      <point x="356" y="464" type="curve" smooth="yes"/>
      <point x="430" y="464"/>
      <point x="472" y="403"/>
      <point x="472" y="336" type="curve" smooth="yes"/>
    </contour>
    <contour>
      <point x="66" y="0" type="line"/>
      <point x="240" y="0" type="line"/>
      <point x="240" y="600" type="line"/>
      <point x="66" y="600" type="line"/>
    </contour>
  </outline>
</glyph>
<glyph name="u" format="2">
  <advance width="700"/>
  <unicode hex="0075"/>
  <anchor x="348" y="0" name="bottom"/>
  <anchor x="562" y="0" name="ogonek"/>
  <anchor x="348" y="600" name="top"/>
  <anchor x="558" y="600" name="topright"/>
  <outline>
    <contour>
      <point x="298" y="-20" type="curve" smooth="yes"/>
      <point x="334" y="-20"/>
      <point x="369" y="-12"/>
      <point x="400" y="2" type="curve"/>
      <point x="400" y="150" type="line"/>
      <point x="383" y="141"/>
      <point x="364" y="136"/>
      <point x="344" y="136" type="curve" smooth="yes"/>
      <point x="270" y="136"/>
      <point x="228" y="197"/>
      <point x="228" y="264" type="curve" smooth="yes"/>
      <point x="228" y="600" type="line"/>
      <point x="54" y="600" type="line"/>
      <point x="54" y="241" type="line" smooth="yes"/>
      <point x="54" y="75"/>
      <point x="171" y="-20"/>
    </contour>
    <contour>
      <point x="460" y="0" type="line"/>
      <point x="634" y="0" type="line"/>
      <point x="634" y="600" type="line"/>
      <point x="460" y="600" type="line"/>
    </contour>
  </outline>
</glyph>
<glyph name="w" format="2">
  <advance width="1000"/>
  <unicode hex="0077"/>
  <anchor x="500" y="0" name="bottom"/>
  <anchor x="504" y="600" name="top"/>
  <outline>
    <contour>
      <point x="695" y="-30" type="line"/>
      <point x="768" y="124" type="line"/>
      <point x="504" y="620" type="line"/>
      <point x="373" y="363" type="line"/>
      <point x="446" y="208" type="line"/>
      <point x="500" y="311" type="line"/>
    </contour>
    <contour>
      <point x="305" y="-30" type="line"/>
      <point x="409" y="146" type="line"/>
      <point x="193" y="600" type="line"/>
      <point x="6" y="600" type="line"/>
    </contour>
    <contour>
      <point x="799" y="189" type="line"/>
      <point x="994" y="600" type="line"/>
      <point x="815" y="600" type="line"/>
      <point x="705" y="368" type="line"/>
    </contour>
  </outline>
</glyph>
<glyph name="y" format="2">
  <advance width="690"/>
  <unicode hex="0079"/>
  <anchor x="461" y="0" name="bottom"/>
  <anchor x="347" y="600" name="top"/>
  <outline>
    <contour>
      <point x="51" y="-300" type="line"/>
      <point x="238" y="-300" type="line"/>
      <point x="684" y="600" type="line"/>
      <point x="499" y="600" type="line"/>
    </contour>
    <contour>
      <point x="218" y="170" type="line"/>
      <point x="313" y="360" type="line"/>
      <point x="310" y="366"/>
      <point x="307" y="373"/>
      <point x="304" y="380" type="curve" smooth="yes"/>
      <point x="198" y="600" type="line"/>
      <point x="6" y="600" type="line"/>
    </contour>
  </outline>
</glyph>
<glyph name="sterling" format="2">
  <advance width="750"/>
  <unicode hex="00A3"/>
  <outline>
    <contour>
      <point x="194" y="442" type="curve"/>
      <point x="362" y="442" type="line"/>
      <point x="352" y="492"/>
      <point x="343" y="541"/>
      <point x="343" y="582" type="curve" smooth="yes"/>
      <point x="343" y="668"/>
      <point x="376" y="731"/>
      <point x="432" y="755" type="curve"/>
      <point x="432" y="918" type="line"/>
      <point x="271" y="900"/>
      <point x="175" y="772"/>
      <point x="175" y="597" type="curve" smooth="yes"/>
      <point x="175" y="547"/>
      <point x="184" y="495"/>
    </contour>
    <contour>
      <point x="127" y="0" type="curve"/>
      <point x="311" y="0" type="line"/>
      <point x="384" y="156" type="line" smooth="yes"/>
      <point x="393" y="176"/>
      <point x="396" y="201"/>
      <point x="396" y="229" type="curve" smooth="yes"/>
      <point x="396" y="262"/>
      <point x="391" y="301"/>
      <point x="383" y="342" type="curve"/>
      <point x="217" y="342" type="line"/>
      <point x="227" y="293"/>
      <point x="234" y="248"/>
      <point x="234" y="208" type="curve" smooth="yes"/>
      <point x="234" y="118"/>
      <point x="191" y="67"/>
    </contour>
    <contour>
      <point x="383" y="0" type="line"/>
      <point x="678" y="0" type="line"/>
      <point x="678" y="156" type="line"/>
      <point x="456" y="156" type="line"/>
    </contour>
    <contour>
      <point x="90" y="396" type="line"/>
      <point x="600" y="396" type="line"/>
      <point x="600" y="504" type="line"/>
      <point x="90" y="504" type="line"/>
    </contour>
    <contour>
      <point x="639" y="662" type="curve"/>
      <point x="684" y="839" type="line"/>
      <point x="629" y="889"/>
      <point x="566" y="915"/>
      <point x="492" y="919" type="curve"/>
      <point x="492" y="764" type="line"/>
      <point x="556" y="759"/>
      <point x="608" y="713"/>
    </contour>
  </outline>
</glyph>
<glyph name="degree" format="2">
  <advance width="480"/>
  <unicode hex="00B0"/>
  <outline>
    <contour>
      <point x="270" y="530" type="line"/>
      <point x="369" y="544"/>
      <point x="441" y="624"/>
      <point x="441" y="720" type="curve" smooth="yes"/>
      <point x="441" y="816"/>
      <point x="368" y="896"/>
      <point x="270" y="910" type="curve"/>
      <point x="270" y="796" type="line"/>
      <point x="304" y="784"/>
      <point x="326" y="755"/>
      <point x="326" y="720" type="curve" smooth="yes"/>
      <point x="326" y="685"/>
      <point x="304" y="656"/>
      <point x="270" y="644" type="curve"/>
    </contour>
    <contour>
      <point x="210" y="530" type="curve"/>
      <point x="210" y="644" type="line"/>
      <point x="176" y="656"/>
      <point x="154" y="685"/>
      <point x="154" y="720" type="curve" smooth="yes"/>
      <point x="154" y="755"/>
      <point x="175" y="784"/>
      <point x="210" y="796" type="curve"/>
      <point x="210" y="910" type="line"/>
      <point x="111" y="896"/>
      <point x="39" y="816"/>
      <point x="39" y="720" type="curve" smooth="yes"/>
      <point x="39" y="624"/>
      <point x="111" y="544"/>
    </contour>
  </outline>
</glyph>
<glyph name="Eth" format="2">
  <advance width="940"/>
  <unicode hex="00D0"/>
  <outline>
    <contour>
      <point x="330" y="0" type="line"/>
      <point x="402" y="0" type="line" smooth="yes"/>
      <point x="689" y="0"/>
      <point x="886" y="201"/>
      <point x="886" y="450" type="curve" smooth="yes"/>
      <point x="886" y="699"/>
      <point x="689" y="900"/>
      <point x="402" y="900" type="curve" smooth="yes"/>
      <point x="330" y="900" type="line"/>
      <point x="330" y="738" type="line"/>
      <point x="386" y="738" type="line" smooth="yes"/>
      <point x="588" y="738"/>
      <point x="698" y="610"/>
      <point x="698" y="450" type="curve" smooth="yes"/>
      <point x="698" y="290"/>
      <point x="588" y="162"/>
      <point x="386" y="162" type="curve" smooth="yes"/>
      <point x="330" y="162" type="line"/>
    </contour>
    <contour>
      <point x="96" y="0" type="line"/>
      <point x="270" y="0" type="line"/>
      <point x="270" y="363" type="line"/>
      <point x="96" y="363" type="line"/>
    </contour>
    <contour>
      <point x="10" y="417" type="line"/>
      <point x="490" y="417" type="line"/>
      <point x="490" y="543" type="line"/>
      <point x="270" y="543" type="line"/>
      <point x="270" y="900" type="line"/>
      <point x="96" y="900" type="line"/>
      <point x="96" y="543" type="line"/>
      <point x="10" y="543" type="line"/>
    </contour>
  </outline>
</glyph>
<glyph name="eth" format="2">
  <advance width="720"/>
  <unicode hex="00F0"/>
  <anchor x="360" y="0" name="bottom"/>
  <anchor x="657" y="10" name="ogonek"/>
  <anchor x="360" y="600" name="top"/>
  <outline>
    <contour>
      <point x="392" y="-19" type="line"/>
      <point x="556" y="-5"/>
      <point x="684" y="130"/>
      <point x="684" y="310" type="curve" smooth="yes"/>
      <point x="684" y="402"/>
      <point x="651" y="497"/>
      <point x="585" y="598" type="curve" smooth="yes"/>
      <point x="559" y="638"/>
      <point x="518" y="695"/>
      <point x="465" y="765" type="curve"/>
      <point x="347" y="690" type="line"/>
      <point x="381" y="643"/>
      <point x="409" y="605"/>
      <point x="432" y="571" type="curve" smooth="yes"/>
      <point x="511" y="453"/>
      <point x="521" y="393"/>
      <point x="521" y="320" type="curve" smooth="yes"/>
      <point x="521" y="222"/>
      <point x="464" y="153"/>
      <point x="392" y="139" type="curve"/>
    </contour>
    <contour>
      <point x="328" y="-19" type="curve"/>
      <point x="328" y="139" type="line"/>
      <point x="255" y="153"/>
      <point x="199" y="219"/>
      <point x="199" y="300" type="curve" smooth="yes"/>
      <point x="199" y="391"/>
      <point x="270" y="464"/>
      <point x="354" y="464" type="curve" smooth="yes"/>
      <point x="386" y="464"/>
      <point x="416" y="455"/>
      <point x="441" y="438" type="curve"/>
      <point x="347" y="613" type="line"/>
      <point x="342" y="614"/>
      <point x="337" y="614"/>
      <point x="333" y="614" type="curve" smooth="yes"/>
      <point x="172" y="614"/>
      <point x="36" y="474"/>
      <point x="36" y="301" type="curve" smooth="yes"/>
      <point x="36" y="133"/>
      <point x="164" y="-3"/>
    </contour>
    <contour>
      <point x="168" y="645" type="line"/>
      <point x="543" y="889" type="line"/>
      <point x="497" y="960" type="line"/>
      <point x="371" y="879" type="line"/>
      <point x="349" y="906"/>
      <point x="326" y="933"/>
      <point x="303" y="960" type="curve"/>
      <point x="118" y="960" type="line"/>
      <point x="165" y="907"/>
      <point x="210" y="854"/>
      <point x="253" y="802" type="curve"/>
      <point x="122" y="717" type="line"/>
    </contour>
  </outline>
</glyph>
<glyph name="oslash" format="2">
  <advance width="720"/>
  <unicode hex="00F8"/>
  <anchor x="360" y="0" name="bottom"/>
  <anchor x="360" y="300" name="center"/>
  <anchor x="390" y="0" name="ogonek"/>
  <anchor x="360" y="600" name="top"/>
  <anchor x="548" y="600" name="topright"/>
  <outline>
    <contour>
      <point x="151" y="-25" type="line"/>
      <point x="640" y="557" type="line"/>
      <point x="563" y="624" type="line"/>
      <point x="74" y="42" type="line"/>
    </contour>
    <contour>
      <point x="360" y="-20" type="curve" smooth="yes"/>
      <point x="539" y="-20"/>
      <point x="684" y="123"/>
      <point x="684" y="300" type="curve" smooth="yes"/>
      <point x="684" y="363"/>
      <point x="666" y="421"/>
      <point x="635" y="470" type="curve"/>
      <point x="523" y="339" type="line"/>
      <point x="525" y="327"/>
      <point x="527" y="313"/>
      <point x="527" y="300" type="curve" smooth="yes"/>
      <point x="527" y="206"/>
      <point x="452" y="130"/>
      <point x="360" y="130" type="curve" smooth="yes"/>
      <point x="323" y="130"/>
      <point x="289" y="142"/>
      <point x="261" y="163" type="curve"/>
      <point x="163" y="46" type="line"/>
      <point x="217" y="5"/>
      <point x="286" y="-20"/>
    </contour>
    <contour>
      <point x="84" y="133" type="curve"/>
      <point x="196" y="265" type="line"/>
      <point x="194" y="277"/>
      <point x="193" y="288"/>
      <point x="193" y="300" type="curve" smooth="yes"/>
      <point x="193" y="394"/>
      <point x="267" y="470"/>
      <point x="360" y="470" type="curve" smooth="yes"/>
      <point x="400" y="470"/>
      <point x="437" y="455"/>
      <point x="466" y="431" type="curve"/>
      <point x="565" y="548" type="line"/>
      <point x="509" y="593"/>
      <point x="438" y="620"/>
      <point x="360" y="620" type="curve" smooth="yes"/>
      <point x="181" y="620"/>
      <point x="36" y="477"/>
      <point x="36" y="300" type="curve" smooth="yes"/>
      <point x="36" y="239"/>
      <point x="53" y="181"/>
    </contour>
  </outline>
</glyph>
<glyph name="oe" format="2">
  <advance width="1140"/>
  <unicode hex="0153"/>
  <anchor x="570" y="0" name="bottom"/>
  <anchor x="570" y="600" name="top"/>
  <outline>
    <contour>
      <point x="330" y="-19" type="curve"/>
      <point x="330" y="139" type="line"/>
      <point x="254" y="153"/>
      <point x="199" y="220"/>
      <point x="199" y="300" type="curve" smooth="yes"/>
      <point x="199" y="381"/>
      <point x="255" y="447"/>
      <point x="330" y="461" type="curve"/>
      <point x="330" y="619" type="line"/>
      <point x="165" y="604"/>
      <point x="36" y="467"/>
      <point x="36" y="300" type="curve" smooth="yes"/>
      <point x="36" y="133"/>
      <point x="165" y="-3"/>
    </contour>
    <contour>
      <point x="513" y="249" type="curve"/>
      <point x="652" y="249" type="line"/>
      <point x="648" y="265"/>
      <point x="646" y="282"/>
      <point x="646" y="300" type="curve"/>
      <point x="637" y="300" type="line"/>
      <point x="637" y="398"/>
      <point x="691" y="466"/>
      <point x="769" y="480" type="curve"/>
      <point x="769" y="619" type="line"/>
      <point x="696" y="612"/>
      <point x="631" y="581"/>
      <point x="581" y="534" type="curve"/>
      <point x="530" y="581"/>
      <point x="464" y="612"/>
      <point x="390" y="619" type="curve"/>
      <point x="390" y="461" type="line"/>
      <point x="465" y="447"/>
      <point x="521" y="381"/>
      <point x="521" y="300" type="curve" smooth="yes"/>
      <point x="521" y="282"/>
      <point x="518" y="265"/>
    </contour>
    <contour>
      <point x="608" y="249" type="line"/>
      <point x="1110" y="249" type="line"/>
      <point x="1110" y="310" type="line" smooth="yes"/>
      <point x="1110" y="477"/>
      <point x="992" y="605"/>
      <point x="830" y="619" type="curve"/>
      <point x="830" y="480" type="line"/>
      <point x="910" y="465"/>
      <point x="959" y="397"/>
      <point x="959" y="300" type="curve"/>
      <point x="988" y="356" type="line"/>
      <point x="946" y="369"/>
      <point x="903" y="375"/>
      <point x="850" y="375" type="curve" smooth="yes"/>
      <point x="744" y="375" type="line" smooth="yes"/>
      <point x="697" y="375"/>
      <point x="655" y="367"/>
      <point x="608" y="355" type="curve"/>
    </contour>
    <contour>
      <point x="390" y="-19" type="line"/>
      <point x="465" y="-12"/>
      <point x="533" y="20"/>
      <point x="584" y="68" type="curve"/>
      <point x="637" y="19"/>
      <point x="709" y="-12"/>
      <point x="795" y="-19" type="curve"/>
      <point x="795" y="127" type="line"/>
      <point x="743" y="135"/>
      <point x="702" y="159"/>
      <point x="677" y="195" type="curve"/>
      <point x="484" y="195" type="line"/>
      <point x="460" y="166"/>
      <point x="427" y="146"/>
      <point x="390" y="139" type="curve"/>
    </contour>
    <contour>
      <point x="857" y="-19" type="line"/>
      <point x="928" y="-14"/>
      <point x="993" y="9"/>
      <point x="1046" y="48" type="curve"/>
      <point x="1008" y="204" type="line"/>
      <point x="974" y="164"/>
      <point x="922" y="132"/>
      <point x="857" y="125" type="curve"/>
    </contour>
  </outline>
</glyph>
<glyph name="jdotless" format="2">
  <advance width="310"/>
  <unicode hex="0237"/>
  <anchor x="160" y="-300" name="bottom"/>
  <anchor x="157" y="600" name="top"/>
  <outline>
    <contour>
      <point x="37" y="-312" type="line"/>
      <point x="157" y="-312"/>
      <point x="244" y="-234"/>
      <point x="244" y="-99" type="curve" smooth="yes"/>
      <point x="244" y="600" type="line"/>
      <point x="72" y="600" type="line"/>
      <point x="72" y="-99" type="line" smooth="yes"/>
      <point x="72" y="-151"/>
      <point x="49" y="-173"/>
      <point x="4" y="-173" type="curve"/>
    </contour>
  </outline>
</glyph>
<glyph name="ogonekcomb" format="2">
  <unicode hex="0328"/>
  <anchor x="403" y="0" name="_ogonek"/>
  <outline>
    <contour>
      <point x="469" y="-318" type="curve"/>
      <point x="499" y="-190" type="line"/>
      <point x="453" y="-189"/>
      <point x="418" y="-166"/>
      <point x="418" y="-116" type="curve" smooth="yes"/>
      <point x="418" y="-94"/>
      <point x="425" y="-74"/>
      <point x="437" y="-54" type="curve"/>
      <point x="294" y="-54" type="line"/>
      <point x="277" y="-86"/>
      <point x="268" y="-119"/>
      <point x="268" y="-153" type="curve" smooth="yes"/>
      <point x="268" y="-266"/>
      <point x="353" y="-318"/>
    </contour>
  </outline>
</glyph>
<glyph name="el" format="2">
  <advance width="750"/>
  <unicode hex="218B"/>
  <outline>
    <contour>
      <point x="114" y="0" type="line"/>
      <point x="290" y="0" type="line"/>
      <point x="539" y="483" type="line"/>
      <point x="504" y="466"/>
      <point x="473" y="459"/>
      <point x="435" y="459" type="curve" smooth="yes"/>
      <point x="346" y="459"/>
      <point x="284" y="526"/>
      <point x="284" y="609" type="curve" smooth="yes"/>
      <point x="284" y="684"/>
      <point x="335" y="744"/>
      <point x="405" y="757" type="curve"/>
      <point x="405" y="919" type="line"/>
      <point x="245" y="904"/>
      <point x="114" y="772"/>
      <point x="114" y="609" type="curve" smooth="yes"/>
      <point x="114" y="466"/>
      <point x="213" y="354"/>
      <point x="340" y="323" type="curve"/>
      <point x="324" y="392" type="line"/>
    </contour>
    <contour>
      <point x="357" y="0" type="line"/>
      <point x="676" y="0" type="line"/>
      <point x="676" y="156" type="line"/>
      <point x="436" y="156" type="line"/>
    </contour>
    <contour>
      <point x="606" y="614" type="curve"/>
      <point x="696" y="791" type="line"/>
      <point x="646" y="861"/>
      <point x="564" y="910"/>
      <point x="469" y="919" type="curve"/>
      <point x="469" y="757" type="line"/>
      <point x="538" y="744"/>
      <point x="588" y="685"/>
    </contour>
  </outline>
</glyph>
<glyph name="brevecomb_tildecomb" format="2">
  <anchor x="360" y="600" name="_top"/>
  <outline>
    <contour>
      <point x="197" y="896" type="line"/>
      <point x="213" y="936"/>
      <point x="240" y="960"/>
      <point x="278" y="960" type="curve" smooth="yes"/>
      <point x="331" y="960"/>
      <point x="378" y="914"/>
      <point x="442" y="914" type="curve" smooth="yes"/>
      <point x="492" y="914"/>
      <point x="537" y="942"/>
      <point x="561" y="990" type="curve"/>
      <point x="523" y="1100" type="line"/>
      <point x="507" y="1060"/>
      <point x="480" y="1036"/>
      <point x="442" y="1036" type="curve" smooth="yes"/>
      <point x="389" y="1036"/>
      <point x="342" y="1082"/>
      <point x="278" y="1082" type="curve" smooth="yes"/>
      <point x="228" y="1082"/>
      <point x="183" y="1054"/>
      <point x="159" y="1006" type="curve"/>
    </contour>
    <contour>
      <point x="360" y="663" type="curve" smooth="yes"/>
      <point x="475" y="663"/>
      <point x="564" y="747"/>
      <point x="564" y="861" type="curve"/>
      <point x="444" y="861" type="line"/>
      <point x="444" y="814"/>
      <point x="405" y="777"/>
      <point x="360" y="777" type="curve" smooth="yes"/>
      <point x="315" y="777"/>
      <point x="276" y="814"/>
      <point x="276" y="861" type="curve"/>
      <point x="156" y="861" type="line"/>
      <point x="156" y="749"/>
      <point x="246" y="663"/>
    </contour>
  </outline>
</glyph>
<glyph name="caroncomb.alt" format="2">
  <anchor x="221" y="960" name="_topright"/>
  <outline>
    <contour>
      <point x="236" y="630" type="curve"/>
      <point x="399" y="630" type="line"/>
      <point x="461" y="723"/>
      <point x="491" y="834"/>
      <point x="491" y="960" type="curve"/>
      <point x="335" y="960" type="line"/>
      <point x="335" y="819"/>
      <point x="293" y="712"/>
    </contour>
  </outline>
</glyph>
<glyph name="dek.lf" format="2">
  <advance width="690"/>
  <outline>
    <contour>
      <point x="322" y="-19" type="curve"/>
      <point x="322" y="146" type="line"/>
      <point x="268" y="159"/>
      <point x="229" y="206"/>
      <point x="229" y="264" type="curve" smooth="yes"/>
      <point x="229" y="290"/>
      <point x="237" y="317"/>
      <point x="268" y="363" type="curve" smooth="yes"/>
      <point x="634" y="900" type="line"/>
      <point x="447" y="901" type="line"/>
      <point x="128" y="452" type="line" smooth="yes"/>
      <point x="77" y="381"/>
      <point x="55" y="328"/>
      <point x="55" y="264" type="curve" smooth="yes"/>
      <point x="55" y="117"/>
      <point x="175" y="-4"/>
    </contour>
    <contour>
      <point x="386" y="-18" type="line"/>
      <point x="535" y="-3"/>
      <point x="646" y="122"/>
      <point x="646" y="263" type="curve" smooth="yes"/>
      <point x="646" y="305"/>
      <point x="636" y="344"/>
      <point x="615" y="382" type="curve"/>
      <point x="419" y="382" type="line"/>
      <point x="458" y="349"/>
      <point x="478" y="308"/>
      <point x="478" y="264" type="curve" smooth="yes"/>
      <point x="478" y="206"/>
      <point x="439" y="158"/>
      <point x="386" y="145" type="curve"/>
    </contour>
    <contour>
      <point x="44" y="738" type="line"/>
      <point x="265" y="738" type="line"/>
      <point x="380" y="900" type="line"/>
      <point x="44" y="900" type="line"/>
    </contour>
  </outline>
</glyph>
<glyph name="dieresiscomb.vertical" format="2">
  <anchor x="360" y="525" name="_top-vertical"/>
  <outline>
    <contour>
      <point x="360" y="321" type="curve" smooth="yes"/>
      <point x="407" y="321"/>
      <point x="444" y="358"/>
      <point x="444" y="405" type="curve" smooth="yes"/>
      <point x="444" y="451"/>
      <point x="407" y="489"/>
      <point x="360" y="489" type="curve" smooth="yes"/>
      <point x="314" y="489"/>
      <point x="276" y="451"/>
      <point x="276" y="405" type="curve" smooth="yes"/>
      <point x="276" y="358"/>
      <point x="314" y="321"/>
    </contour>
    <contour>
      <point x="360" y="561" type="curve" smooth="yes"/>
      <point x="407" y="561"/>
      <point x="444" y="598"/>
      <point x="444" y="645" type="curve" smooth="yes"/>
      <point x="444" y="691"/>
      <point x="407" y="729"/>
      <point x="360" y="729" type="curve" smooth="yes"/>
      <point x="314" y="729"/>
      <point x="276" y="691"/>
      <point x="276" y="645" type="curve" smooth="yes"/>
      <point x="276" y="598"/>
      <point x="314" y="561"/>
    </contour>
  </outline>
</glyph>
<glyph name="eight.lf" format="2">
  <advance width="750"/>
  <outline>
    <contour>
      <point x="343" y="-19" type="curve"/>
      <point x="343" y="141" type="line"/>
      <point x="273" y="155"/>
      <point x="219" y="218"/>
      <point x="219" y="294" type="curve" smooth="yes"/>
      <point x="219" y="371"/>
      <point x="273" y="434"/>
      <point x="344" y="447" type="curve"/>
      <point x="344" y="595" type="line"/>
      <point x="310" y="607"/>
      <point x="285" y="641"/>
      <point x="285" y="680" type="curve" smooth="yes"/>
      <point x="285" y="719"/>
      <point x="310" y="753"/>
      <point x="345" y="765" type="curve"/>
      <point x="345" y="918" type="line"/>
      <point x="226" y="904"/>
      <point x="135" y="809"/>
      <point x="135" y="687" type="curve" smooth="yes"/>
      <point x="135" y="612"/>
      <point x="168" y="555"/>
      <point x="219" y="513" type="curve"/>
      <point x="240" y="578" type="line"/>
      <point x="131" y="530"/>
      <point x="53" y="423"/>
      <point x="53" y="294" type="curve" smooth="yes"/>
      <point x="53" y="127"/>
      <point x="184" y="-4"/>
    </contour>
    <contour>
      <point x="407" y="-18" type="line"/>
      <point x="563" y="-3"/>
      <point x="697" y="132"/>
      <point x="697" y="294" type="curve" smooth="yes"/>
      <point x="697" y="423"/>
      <point x="619" y="530"/>
      <point x="510" y="578" type="curve"/>
      <point x="531" y="513" type="line"/>
      <point x="582" y="554"/>
      <point x="615" y="612"/>
      <point x="615" y="687" type="curve" smooth="yes"/>
      <point x="615" y="809"/>
      <point x="524" y="904"/>
      <point x="405" y="918" type="curve"/>
      <point x="405" y="765" type="line"/>
      <point x="440" y="752"/>
      <point x="465" y="719"/>
      <point x="465" y="680" type="curve" smooth="yes"/>
      <point x="465" y="641"/>
      <point x="440" y="608"/>
      <point x="406" y="595" type="curve"/>
      <point x="406" y="447" type="line"/>
      <point x="478" y="433"/>
      <point x="531" y="370"/>
      <point x="531" y="294" type="curve" smooth="yes"/>
      <point x="531" y="218"/>
      <point x="478" y="155"/>
      <point x="407" y="141" type="curve"/>
    </contour>
  </outline>
</glyph>
<glyph name="el.lf" format="2">
  <advance width="690"/>
  <outline>
    <contour>
      <point x="84" y="0" type="line"/>
      <point x="260" y="0" type="line"/>
      <point x="509" y="483" type="line"/>
      <point x="474" y="466"/>
      <point x="443" y="459"/>
      <point x="405" y="459" type="curve" smooth="yes"/>
      <point x="316" y="459"/>
      <point x="254" y="526"/>
      <point x="254" y="609" type="curve" smooth="yes"/>
      <point x="254" y="684"/>
      <point x="305" y="744"/>
      <point x="375" y="757" type="curve"/>
      <point x="375" y="919" type="line"/>
      <point x="215" y="904"/>
      <point x="84" y="772"/>
      <point x="84" y="609" type="curve" smooth="yes"/>
      <point x="84" y="466"/>
      <point x="183" y="354"/>
      <point x="310" y="323" type="curve"/>
      <point x="294" y="392" type="line"/>
    </contour>
    <contour>
      <point x="327" y="0" type="line"/>
      <point x="646" y="0" type="line"/>
      <point x="646" y="156" type="line"/>
      <point x="406" y="156" type="line"/>
    </contour>
    <contour>
      <point x="576" y="614" type="curve"/>
      <point x="666" y="791" type="line"/>
      <point x="616" y="861"/>
      <point x="534" y="910"/>
      <point x="439" y="919" type="curve"/>
      <point x="439" y="757" type="line"/>
      <point x="508" y="744"/>
      <point x="558" y="685"/>
    </contour>
  </outline>
</glyph>
<glyph name="endash.titl" format="2">
  <advance width="720"/>
  <outline>
    <contour>
      <point x="60" y="264" type="line"/>
      <point x="660" y="264" type="line"/>
      <point x="660" y="336" type="line"/>
      <point x="60" y="336" type="line"/>
    </contour>
  </outline>
</glyph>
<glyph name="five.lf" format="2">
  <advance width="690"/>
  <outline>
    <contour>
      <point x="326" y="-19" type="line"/>
      <point x="492" y="-5"/>
      <point x="624" y="129"/>
      <point x="624" y="300" type="curve" smooth="yes"/>
      <point x="624" y="473"/>
      <point x="489" y="599"/>
      <point x="336" y="606" type="curve"/>
      <point x="336" y="452" type="line"/>
      <point x="404" y="434"/>
      <point x="454" y="379"/>
      <point x="454" y="302" type="curve" smooth="yes"/>
      <point x="454" y="221"/>
      <point x="398" y="159"/>
      <point x="326" y="145" type="curve"/>
    </contour>
    <contour>
      <point x="262" y="-19" type="curve"/>
      <point x="262" y="144" type="line"/>
      <point x="186" y="157"/>
      <point x="128" y="220"/>
      <point x="109" y="295" type="curve"/>
      <point x="18" y="116" type="line"/>
      <point x="71" y="42"/>
      <point x="160" y="-10"/>
    </contour>
    <contour>
      <point x="132" y="390" type="line"/>
      <point x="169" y="429"/>
      <point x="219" y="455"/>
      <point x="276" y="458" type="curve"/>
      <point x="276" y="900" type="line"/>
      <point x="132" y="900" type="line"/>
    </contour>
    <contour>
      <point x="336" y="744" type="line"/>
      <point x="564" y="744" type="line"/>
      <point x="564" y="900" type="line"/>
      <point x="336" y="900" type="line"/>
    </contour>
  </outline>
</glyph>
<glyph name="guilsinglright.case" format="2">
  <advance width="360"/>
  <outline>
    <contour>
      <point x="183" y="210" type="line"/>
      <point x="345" y="450" type="line"/>
      <point x="183" y="690" type="line"/>
      <point x="21" y="690" type="line"/>
      <point x="183" y="450" type="line"/>
      <point x="21" y="210" type="line"/>
    </contour>
  </outline>
</glyph>
<glyph name="hyphen.titl.case" format="2">
  <advance width="360"/>
  <outline>
    <contour>
      <point x="30" y="415" type="line"/>
      <point x="330" y="415" type="line"/>
      <point x="330" y="485" type="line"/>
      <point x="30" y="485" type="line"/>
    </contour>
  </outline>
</glyph>
<glyph name="hyphen.titl" format="2">
  <advance width="360"/>
  <outline>
    <contour>
      <point x="30" y="265" type="line"/>
      <point x="330" y="265" type="line"/>
      <point x="330" y="335" type="line"/>
      <point x="30" y="335" type="line"/>
    </contour>
  </outline>
</glyph>
<glyph name="l.lslash" format="2">
  <advance width="310"/>
  <anchor x="155" y="0" name="bottom"/>
  <anchor x="155" y="480" name="center"/>
  <anchor x="365" y="420" name="periodcentered"/>
  <anchor x="155" y="960" name="top"/>
  <anchor x="242" y="960" name="topright"/>
  <outline>
    <contour>
      <point x="68" y="384" type="line"/>
      <point x="242" y="498" type="line"/>
      <point x="242" y="960" type="line"/>
      <point x="68" y="960" type="line"/>
    </contour>
    <contour>
      <point x="242" y="408" type="line"/>
      <point x="68" y="294" type="line"/>
      <point x="68" y="0" type="line"/>
      <point x="242" y="0" type="line"/>
    </contour>
  </outline>
</glyph>
<glyph name="nine.lf" format="2">
  <advance width="750"/>
  <outline>
    <contour>
      <point x="228" y="0" type="line"/>
      <point x="408" y="0" type="line"/>
      <point x="649" y="459" type="line" smooth="yes"/>
      <point x="675" y="509"/>
      <point x="690" y="558"/>
      <point x="690" y="613" type="curve" smooth="yes"/>
      <point x="690" y="775"/>
      <point x="565" y="905"/>
      <point x="401" y="919" type="curve"/>
      <point x="401" y="755" type="line"/>
      <point x="469" y="741"/>
      <point x="520" y="680"/>
      <point x="520" y="607" type="curve" smooth="yes"/>
      <point x="520" y="575"/>
      <point x="513" y="544"/>
      <point x="486" y="493" type="curve" smooth="yes"/>
    </contour>
    <contour>
      <point x="322" y="307" type="curve"/>
      <point x="403" y="460" type="line"/>
      <point x="392" y="457"/>
      <point x="381" y="456"/>
      <point x="369" y="456" type="curve" smooth="yes"/>
      <point x="284" y="456"/>
      <point x="218" y="524"/>
      <point x="218" y="607" type="curve" smooth="yes"/>
      <point x="218" y="680"/>
      <point x="268" y="741"/>
      <point x="337" y="755" type="curve"/>
      <point x="337" y="919" type="line"/>
      <point x="173" y="904"/>
      <point x="48" y="775"/>
      <point x="48" y="610" type="curve" smooth="yes"/>
      <point x="48" y="450"/>
      <point x="165" y="322"/>
    </contour>
  </outline>
</glyph>
<glyph name="one.numr" format="2">
  <advance width="480"/>
  <outline>
    <contour>
      <point x="96" y="668" type="line"/>
      <point x="348" y="794" type="line"/>
      <point x="348" y="932" type="line"/>
      <point x="96" y="806" type="line"/>
    </contour>
    <contour>
      <point x="210" y="420" type="line"/>
      <point x="348" y="420" type="line"/>
      <point x="348" y="736" type="line"/>
      <point x="210" y="668" type="line"/>
    </contour>
  </outline>
</glyph>
<glyph name="registered.lf" format="2">
  <advance width="1260"/>
  <outline>
    <contour>
      <point x="662" y="-191" type="line"/>
      <point x="955" y="-176"/>
      <point x="1188" y="65"/>
      <point x="1188" y="360" type="curve" smooth="yes"/>
      <point x="1188" y="655"/>
      <point x="955" y="896"/>
      <point x="662" y="911" type="curve"/>
      <point x="662" y="779" type="line"/>
      <point x="879" y="764"/>
      <point x="1050" y="582"/>
      <point x="1050" y="360" type="curve" smooth="yes"/>
      <point x="1050" y="138"/>
      <point x="879" y="-44"/>
      <point x="662" y="-59" type="curve"/>
    </contour>
    <contour>
      <point x="598" y="-191" type="curve"/>
      <point x="598" y="-59" type="line"/>
      <point x="381" y="-43"/>
      <point x="210" y="138"/>
      <point x="210" y="360" type="curve" smooth="yes"/>
      <point x="210" y="582"/>
      <point x="381" y="763"/>
      <point x="598" y="779" type="curve"/>
      <point x="598" y="911" type="line"/>
      <point x="305" y="896"/>
      <point x="72" y="655"/>
      <point x="72" y="360" type="curve" smooth="yes"/>
      <point x="72" y="65"/>
      <point x="305" y="-176"/>
    </contour>
    <contour>
      <point x="412" y="90" type="line"/>
      <point x="568" y="90" type="line"/>
      <point x="568" y="630" type="line"/>
      <point x="412" y="630" type="line"/>
    </contour>
    <contour>
      <point x="735" y="90" type="line"/>
      <point x="912" y="90" type="line"/>
      <point x="795" y="282" type="line"/>
      <point x="840" y="318"/>
      <point x="866" y="370"/>
      <point x="866" y="431" type="curve" smooth="yes"/>
      <point x="866" y="539"/>
      <point x="784" y="630"/>
      <point x="647" y="630" type="curve" smooth="yes"/>
      <point x="628" y="630" type="line"/>
      <point x="628" y="505" type="line"/>
      <point x="629" y="505" type="line" smooth="yes"/>
      <point x="679" y="505"/>
      <point x="710" y="475"/>
      <point x="710" y="431" type="curve" smooth="yes"/>
      <point x="710" y="393"/>
      <point x="685" y="355"/>
      <point x="629" y="355" type="curve" smooth="yes"/>
      <point x="628" y="355" type="line"/>
      <point x="628" y="235" type="line"/>
      <point x="647" y="235" type="line" smooth="yes"/>
      <point x="665" y="235"/>
      <point x="681" y="236"/>
      <point x="697" y="239" type="curve"/>
      <point x="637" y="254" type="line"/>
    </contour>
  </outline>
</glyph>
<glyph name="ringcomb_acutecomb" format="2">
  <anchor x="360" y="600" name="_top"/>
  <outline>
    <contour>
      <point x="298" y="957" type="line"/>
      <point x="424" y="957" type="line"/>
      <point x="517" y="1092" type="line"/>
      <point x="360" y="1092" type="line"/>
    </contour>
    <contour>
      <point x="387" y="647" type="line"/>
      <point x="454" y="659"/>
      <point x="504" y="712"/>
      <point x="504" y="780" type="curve" smooth="yes"/>
      <point x="504" y="847"/>
      <point x="449" y="900"/>
      <point x="387" y="912" type="curve"/>
      <point x="387" y="827" type="line"/>
      <point x="406" y="817"/>
      <point x="420" y="800"/>
      <point x="420" y="780" type="curve" smooth="yes"/>
      <point x="420" y="760"/>
      <point x="407" y="742"/>
      <point x="387" y="733" type="curve"/>
    </contour>
    <contour>
      <point x="333" y="648" type="curve"/>
      <point x="333" y="733" type="line"/>
      <point x="313" y="742"/>
      <point x="300" y="760"/>
      <point x="300" y="780" type="curve" smooth="yes"/>
      <point x="300" y="800"/>
      <point x="313" y="818"/>
      <point x="333" y="827" type="curve"/>
      <point x="333" y="912" type="line"/>
      <point x="266" y="900"/>
      <point x="216" y="847"/>
      <point x="216" y="780" type="curve" smooth="yes"/>
      <point x="216" y="713"/>
      <point x="266" y="660"/>
    </contour>
  </outline>
</glyph>
<glyph name="seven.lf" format="2">
  <advance width="690"/>
  <outline>
    <contour>
      <point x="54" y="0" type="line"/>
      <point x="252" y="0" type="line"/>
      <point x="675" y="900" type="line"/>
      <point x="483" y="900" type="line"/>
    </contour>
    <contour>
      <point x="42" y="738" type="line"/>
      <point x="340" y="738" type="line"/>
      <point x="417" y="900" type="line"/>
      <point x="42" y="900" type="line"/>
    </contour>
  </outline>
</glyph>
<glyph name="strokeshortcomb.case" format="2">
  <anchor x="199" y="300" name="_center"/>
  <outline>
    <contour>
      <point x="30" y="237" type="line"/>
      <point x="510" y="237" type="line"/>
      <point x="510" y="363" type="line"/>
      <point x="30" y="363" type="line"/>
    </contour>
  </outline>
</glyph>
<glyph name="zero.lf" format="2">
  <advance width="750"/>
  <outline>
    <contour>
      <point x="409" y="-19" type="line"/>
      <point x="616" y="1"/>
      <point x="708" y="233"/>
      <point x="708" y="450" type="curve" smooth="yes"/>
      <point x="708" y="667"/>
      <point x="616" y="899"/>
      <point x="409" y="919" type="curve"/>
      <point x="409" y="754" type="line"/>
      <point x="496" y="727"/>
      <point x="528" y="577"/>
      <point x="528" y="450" type="curve" smooth="yes"/>
      <point x="528" y="323"/>
      <point x="496" y="173"/>
      <point x="409" y="146" type="curve"/>
    </contour>
    <contour>
      <point x="341" y="-19" type="curve"/>
      <point x="341" y="146" type="line"/>
      <point x="255" y="173"/>
      <point x="222" y="323"/>
      <point x="222" y="450" type="curve" smooth="yes"/>
      <point x="222" y="577"/>
      <point x="255" y="727"/>
      <point x="341" y="754" type="curve"/>
      <point x="341" y="919" type="line"/>
      <point x="135" y="899"/>
      <point x="42" y="667"/>
      <point x="42" y="450" type="curve" smooth="yes"/>
      <point x="42" y="233"/>
      <point x="135" y="1"/>
    </contour>
  </outline>
</glyph>
<glyph name="zero.numr" format="2">
  <advance width="480"/>
  <outline>
    <contour>
      <point x="268" y="410" type="line"/>
      <point x="387" y="426"/>
      <point x="444" y="541"/>
      <point x="444" y="660" type="curve" smooth="yes"/>
      <point x="444" y="780"/>
      <point x="387" y="894"/>
      <point x="268" y="910" type="curve"/>
      <point x="268" y="784" type="line"/>
      <point x="300" y="764"/>
      <point x="312" y="714"/>
      <point x="312" y="660" type="curve" smooth="yes"/>
      <point x="312" y="606"/>
      <point x="300" y="555"/>
      <point x="268" y="536" type="curve"/>
    </contour>
    <contour>
      <point x="212" y="410" type="curve"/>
      <point x="212" y="537" type="line"/>
      <point x="179" y="556"/>
      <point x="168" y="606"/>
      <point x="168" y="660" type="curve" smooth="yes"/>
      <point x="168" y="714"/>
      <point x="180" y="764"/>
      <point x="212" y="783" type="curve"/>
      <point x="212" y="910" type="line"/>
      <point x="93" y="893"/>
      <point x="36" y="780"/>
      <point x="36" y="660" type="curve" smooth="yes"/>
      <point x="36" y="541"/>
      <point x="93" y="427"/>
    </contour>
  </outline>
</glyph>
